<svg xmlns="http://www.w3.org/2000/svg" version="1.1" xmlns:xlink="http://www.w3.org/1999/xlink" width="2000" height="124" viewBox="0 0 2000 124"><svg xml:space="preserve" width="2000" height="124" data-version="2" data-id="lg_3XKlLqKT7O1W88cQud" viewBox="0 0 555 124" x="0" y="0"><rect width="100%" height="100%" fill="transparent"></rect><circle r="59.32" fill="#9d5d22" transform="translate(66.48 62)scale(1.0291)"></circle><path fill="#9d5d22" d="M169.185 98.94q-6.03 0-10.97-2.86t-7.9-8.99q-2.97-6.14-2.97-15.71v-1.14q0-8.74 2.86-14.61 2.86-5.88 7.59-8.9 4.74-3.01 10.56-3.01 5.62 0 9.67 2.13 4.06 2.13 6.24 5.67v-28.5h10.4V97.9h-7.9l-1.46-7.38q-2.6 3.95-6.6 6.19-4.01 2.23-9.52 2.23m1.87-7.38q3.64 0 6.61-1.72 2.96-1.71 4.78-5.61 1.82-3.9 1.82-10.46v-5.82q0-5.72-1.77-9.41-1.76-3.69-4.78-5.51-3.02-1.82-6.66-1.82-5.4 0-9.15 4.21-3.74 4.21-3.74 12.74v5.72q0 6.45 1.71 10.35 1.72 3.9 4.68 5.61 2.97 1.72 6.5 1.72"></path><rect width="47.32" height="75.92" x="-23.66" y="-37.96" fill="none" rx="0" ry="0" transform="translate(171.5 61.48)"></rect><path fill="#9d5d22" d="m222.745 97.9-17.37-53.14h10.82l12.06 37.96h.42l12.27-37.96h10.92l12.17 37.96h.52l12.06-37.96h9.99l-17.37 53.14h-10.5l-12.48-38.27h-.42l-12.38 38.27Z"></path><rect width="81.23" height="53.14" x="-40.62" y="-26.57" fill="none" rx="0" ry="0" transform="translate(246.49 71.83)"></rect><path fill="#9d5d22" d="M310.935 98.94q-4.26 0-8.16-1.35-3.9-1.35-6.34-4.63-2.45-3.27-2.45-8.89 0-5.72 2.55-9.2 2.55-3.49 7.28-5.36t11.34-2.5q6.6-.62 14.5-.62v-5.41q0-5.61-2.75-7.85-2.76-2.24-8.69-2.24-4.99 0-8.63 2.14-3.64 2.13-3.64 6.7v1.25h-10.09q-.1-.52-.1-1.09v-1.2q0-4.57 2.86-7.95t7.8-5.2q4.94-1.82 11.28-1.82h1.46q10.5 0 15.65 4.16t5.15 11.96v28.18q0 1.87.83 2.71.83.83 1.98.83 1.14 0 2.44-.42 1.3-.41 2.34-1.04v6.66q-1.35 1.04-3.33 1.61-1.97.57-4.68.57-3.32 0-5.35-1.3t-2.97-3.48q-.93-2.19-1.14-4.89-3.02 4.68-7.85 7.18-4.84 2.49-11.29 2.49m4.16-7.38q3.64 0 6.97-1.61 3.33-1.62 5.46-4.94 2.13-3.33 2.13-8.32v-3.96q-7.8 0-13.41.78-5.62.78-8.58 2.97-2.97 2.18-2.97 6.76 0 4.37 2.6 6.34 2.6 1.98 7.8 1.98"></path><rect width="53.56" height="55.22" x="-26.78" y="-27.61" fill="none" rx="0" ry="0" transform="translate(321.26 71.83)"></rect><path fill="#9d5d22" d="M359.505 97.9V23.02h10.4V97.9Z"></path><rect width="10.4" height="74.88" x="-5.2" y="-37.44" fill="none" rx="0" ry="0" transform="translate(365.2 60.96)"></rect><path fill="#9d5d22" d="M386.755 97.9V23.02h10.4V97.9Z"></path><rect width="10.4" height="74.88" x="-5.2" y="-37.44" fill="none" rx="0" ry="0" transform="translate(392.45 60.96)"></rect><path fill="#9d5d22" d="M435.425 98.94q-7.07 0-12.43-3.07-5.35-3.06-8.37-9.04-3.01-5.98-3.01-14.41v-2.18q0-8.53 3.17-14.46 3.17-5.93 8.68-8.99 5.51-3.07 12.59-3.07h1.14q6.45 0 11.44 2.7 4.99 2.71 7.75 7.7 2.75 4.99 2.75 11.85v6.66h-36.71q0 5.93 1.61 10.19 1.62 4.27 4.68 6.5 3.07 2.24 7.54 2.24 3.75 0 6.66-1.46 2.91-1.45 4.68-4.47 1.77-3.02 1.77-7.49h9.77q0 6.35-3.01 11.03-3.02 4.68-8.17 7.22-5.14 2.55-11.59 2.55Zm-12.89-32.55h26.41q0-7.8-3.38-11.54-3.38-3.75-9.41-3.75-5.51 0-9.41 3.85-3.9 3.85-4.21 11.44"></path><rect width="47.52" height="55.22" x="-23.76" y="-27.61" fill="none" rx="0" ry="0" transform="translate(435.88 71.83)"></rect><path fill="#9d5d22" d="M488.885 98.94q-3.85 0-6.92-1.25-3.07-1.24-4.78-4-1.72-2.76-1.72-7.33V52.87h-5.82v-8.11h6.13l3.64-16.95h6.45v16.95h12.38v8.11h-12.38v31.62q0 4.57 1.87 5.82 1.88 1.25 4.06 1.25 1.14 0 3.17-.52 2.03-.52 3.28-1.04v6.97q-1.15.62-2.76 1.09-1.61.47-3.33.67-1.71.21-3.27.21"></path><rect width="28.6" height="71.13" x="-14.3" y="-35.56" fill="none" rx="0" ry="0" transform="translate(484.44 63.88)"></rect><path fill="#9d5d22" d="M507.915 97.9v-3.85l25.79-41.8h-24.23v-7.49h38.27v3.74l-25.79 41.91h26.62v7.49Z"></path><rect width="40.66" height="53.14" x="-20.33" y="-26.57" fill="none" rx="0" ry="0" transform="translate(528.75 71.83)"></rect><path fill="#fff" d="M47.09 88.24c-1.31-3.099-5.004-14.538 4.529-29.433 13.108-20.02 7.984-37.297 7.984-37.297s17.04 6.315 11.916 40.514c-1.192 7.745-1.073 10.724 2.383 11.201 5.958.834 3.694-23.474 3.694-23.474s4.647 2.383 8.103 14.418c1.787 6.315 2.145 11.32 1.906 14.895-1.191 21.568-19.661 23.355-19.661 23.355s-14.061 1.907-20.853-14.18"></path></svg></svg>